# xmcd CD database file
#
# Track frame offsets:
#	150
#	17178
#	36076
#	53055
#
# Disc length: 955 seconds
#
# Revision: 8
# Processed by: cddbd v1.5.2PL0 Copyright (c) Steve Scherf et al.
# Submitted via: CDex 1.70beta3
#
DISCID=2a03b904
DTITLE=放課後ティータイム[平沢唯・秋山澪・田井中律・琴吹紬・中野梓（CV：豊崎愛生、日笠陽子、佐藤聡美、寿美菜子、竹達彩菜）] - Listen!!
DYEAR=2010
DGENRE=Anime
TTITLE0=Listen!!
TTITLE1=Our MAGIC
TTITLE2=Listen!!(Instrumental)
TTITLE3=Our MAGIC(Instrumental)
EXTD=YEAR: 2010
EXTT0=
EXTT1=
EXTT2=
EXTT3=
PLAYORDER=
